<svg width="92" height="32" viewBox="0 0 92 32" fill="none" xmlns="http://www.w3.org/2000/svg">
<path d="SUNIL" fill="white"/>
<path d="M10.987 31.5834C4.92849 31.5834 0 26.6253 0 20.5316C0 14.4378 4.92899 9.47974 10.987 9.47974C17.045 9.47974 21.974 14.4378 21.974 20.5316C21.974 26.6253 17.0459 31.5834 10.987 31.5834ZM10.987 10.5353C5.50765 10.5353 1.04938 15.019 1.04938 20.5311C1.04938 26.0433 5.50765 30.5269 10.987 30.5269C16.4663 30.5269 20.9251 26.0423 20.9251 20.5301C20.9251 15.0179 16.4673 10.5353 10.987 10.5353Z" fill="white"/>
<path d="M18.96 21.0218C18.6182 19.7476 15.4851 19.6101 13.6203 20.0772C12.6437 20.3228 11.6456 20.642 10.6162 20.8257C11.3697 21.4982 12.1788 22.1343 13.34 22.2924C16.2211 22.6834 18.0112 21.7743 18.96 21.0218Z" fill="white"/>
<path d="M13.34 22.2924C12.1764 22.1342 11.3697 21.4982 10.6162 20.8257C9.45013 19.7849 8.41298 18.6571 6.37723 19.0815C3.14069 19.7564 2.71488 23.6073 5.21404 26.082C6.28706 27.2123 7.66455 28.0033 9.17779 28.3578C10.691 28.7124 12.2742 28.6152 13.7333 28.0782C15.1924 27.5411 16.4641 26.5876 17.3925 25.3344C18.3209 24.0811 18.8656 22.5827 18.96 21.0227C18.0112 21.7742 16.221 22.6834 13.34 22.2924Z" fill="white"/>
<path d="M15.0335 13.9579C14.6296 14.8288 18.2299 15.795 18.6606 18.6871C18.8682 15.8401 15.533 12.8812 15.0335 13.9579Z" fill="white"/>
<path d="M7.46619 17.5928C8.11524 17.3224 8.42345 16.5739 8.15463 15.921C7.8858 15.2681 7.14167 14.958 6.49262 15.2285C5.84357 15.4989 5.53536 16.2474 5.80418 16.9003C6.07306 17.5532 6.81714 17.8632 7.46619 17.5928Z" fill="white"/>
<path d="M10.3544 14.0793C10.658 13.7739 10.658 13.2789 10.3544 12.9734C10.0508 12.668 9.5586 12.668 9.25503 12.9734C8.95145 13.2789 8.95145 13.7739 9.25503 14.0793C9.5586 14.3847 10.0508 14.3847 10.3544 14.0793Z" fill="white"/>
<path d="M13.1009 9.05139C14.224 5.71423 13.4691 3.04803 11.1609 1.78174C9.5831 2.10445 8.64651 2.87268 8.125 3.93316C11.2199 3.68118 13.1839 5.62974 13.1009 9.05139Z" fill="white"/>
<path d="M25.6988 6.13562C20.1394 4.1286 16.6309 4.81676 16.0791 9.38976C19.2653 12.6965 22.4745 11.1138 25.6988 6.13562Z" fill="white"/>
<path d="M21.2765 4.32468C21.5343 3.21655 21.6681 1.90702 21.6881 0.416748C15.9226 1.7081 13.3224 4.17584 15.2839 8.33773C15.3816 8.3613 15.4754 8.38045 15.5696 8.40012C16.0281 5.14348 18.0463 3.93762 21.2765 4.32468Z" fill="white"/>
</svg>
